<?xml version="1.0" encoding="UTF-8"?>
<svg version="1.1" xmlns="http://www.w3.org/2000/svg" width="2820" height="600">
<path d="M0 0 C59.585625 -0.061875 119.17125 -0.12375 180.5625 -0.1875 C199.33584229 -0.21481201 218.10918457 -0.24212402 237.45141602 -0.27026367 C260.48034668 -0.28381348 260.48034668 -0.28381348 271.28135681 -0.28633118 C278.78085699 -0.28911176 286.28028897 -0.30004334 293.7797699 -0.31672668 C302.45553712 -0.33599782 311.13123969 -0.34446753 319.80702841 -0.34033485 C324.23282112 -0.33854903 328.65846987 -0.34111857 333.08423531 -0.35764539 C405.43024539 -0.61420125 478.38111787 12.17284192 533 63 C533.66644531 63.61230469 534.33289062 64.22460938 535.01953125 64.85546875 C570.88866279 99.11742943 588.05375135 153.9014738 589.17700195 202.41015625 C589.20305407 204.29420144 589.22326083 206.17833456 589.23828125 208.0625 C589.24812042 209.08404678 589.25795959 210.10559357 589.26809692 211.15809631 C589.59869018 254.34394012 589.59869018 254.34394012 585 274 C584.75330566 275.05815918 584.50661133 276.11631836 584.25244141 277.20654297 C580.831877 291.35285506 576.2769523 304.86858215 570 318 C569.62504395 318.78568359 569.25008789 319.57136719 568.86376953 320.38085938 C553.1071837 352.85215746 528.7554796 378.91162322 499 399 C504.50509421 410.4991277 510.6092335 421.65307409 516.79418945 432.79614258 C517.49823764 434.06460034 518.20225786 435.33307363 518.90625 436.6015625 C519.42792 437.54134193 519.42792 437.54134193 519.96012878 438.50010681 C523.24917392 444.43336104 526.47230059 450.4014486 529.6875 456.375 C533.82560525 464.05380129 538.05598681 471.67156452 542.375 479.25 C547.56070352 488.35073275 552.5392625 497.55319743 557.4574585 506.8001709 C561.69590831 514.76407335 566.02629895 522.66551367 570.5 530.5 C575.64397062 539.50828353 580.57950713 548.61838667 585.44491577 557.77911377 C590.44693549 567.19305738 595.60906426 576.50123825 600.96484375 585.71875 C601.46757813 586.59273437 601.9703125 587.46671875 602.48828125 588.3671875 C603.14630737 589.49809814 603.14630737 589.49809814 603.81762695 590.65185547 C605 593 605 593 607 599 C548.59 599 490.18 599 430 599 C421.00557306 583.25975285 421.00557306 583.25975285 418.02734375 577.6171875 C417.70225327 577.00310028 417.37716278 576.38901306 417.04222107 575.75631714 C416.35705771 574.46155983 415.67287991 573.1662805 414.98968506 571.8704834 C413.14502978 568.37206935 411.29246404 564.87784174 409.44140625 561.3828125 C408.88005981 560.32211548 408.88005981 560.32211548 408.30737305 559.23999023 C404.68530074 552.39812316 401.03410686 545.57212933 397.375 538.75 C396.76454834 537.61159668 396.15409668 536.47319336 395.52514648 535.30029297 C394.29784951 533.01195807 393.07039262 530.72370894 391.84277344 528.43554688 C388.09876026 521.45545235 384.35995768 514.47256515 380.62011719 507.49023438 C377.52184053 501.70614014 374.42242657 495.92266218 371.3203125 490.140625 C361.83378026 472.45115051 352.41741658 454.7269018 343 437 C288.88 436.67 234.76 436.34 179 436 C179 489.79 179 543.58 179 599 C119.93 599 60.86 599 0 599 C0 401.33 0 203.66 0 0 Z M179 150 C179 199.83 179 249.66 179 301 C203.729375 301.04125 228.45875 301.0825 253.9375 301.125 C265.60855103 301.15231201 265.60855103 301.15231201 277.51538086 301.18017578 C284.54846866 301.1868686 284.54846866 301.1868686 291.58155823 301.19088745 C294.69084077 301.19273522 297.80005358 301.20016746 300.90931702 301.21115112 C304.89665914 301.22504627 308.8839024 301.22895018 312.87126648 301.22614455 C314.32132083 301.22672971 315.77137927 301.23058951 317.22141254 301.23843026 C344.38562067 301.37828503 370.43415041 296.68985782 391.2421875 277.984375 C404.54016809 264.42767884 410.1514163 243.52956994 410 225 C409.22896884 204.23910975 404.15209311 185.15010739 388.88305664 170.23120117 C380.69705697 162.68307161 371.35667999 158.20417513 360.9375 154.625 C360.24253418 154.38604004 359.54756836 154.14708008 358.83154297 153.90087891 C347.05937724 150.15062265 335.08704916 149.71064316 322.83666992 149.77294922 C321.25841784 149.77351478 319.68016523 149.77319394 318.10191345 149.77206421 C313.85896966 149.77149536 309.61614123 149.78317303 305.37322402 149.79721212 C300.92365224 149.80979831 296.47407719 149.81089616 292.02449036 149.81326294 C283.61714743 149.81945469 275.20985712 149.835834 266.80253726 149.85596192 C255.42859823 149.88259539 244.05464458 149.89331221 232.68068218 149.90496635 C214.78708211 149.9237165 196.89359304 149.96357744 179 150 Z " fill="#FFFFFF" transform="translate(1318,1)"/>
<path d="M0 0 C0.76513647 0.00037972 1.53027293 0.00075944 2.31859535 0.00115067 C3.63830545 -0.00183591 3.63830545 -0.00183591 4.98467636 -0.00488281 C6.45108555 -0.00051355 6.45108555 -0.00051355 7.94711918 0.00394398 C8.9770288 0.00308955 10.00693842 0.00223513 11.06805742 0.00135481 C14.54749153 -0.00030308 18.02687829 0.00522642 21.50630802 0.01067311 C23.98918256 0.01095494 26.47205718 0.01079732 28.95493168 0.0102306 C34.31498499 0.01000228 39.67502333 0.01285371 45.03507274 0.01846844 C52.78488809 0.02658121 60.53469755 0.02919843 68.28451668 0.03045643 C80.85682286 0.0326473 93.42912255 0.03930834 106.00142521 0.04875904 C118.21724519 0.05793225 130.43306342 0.06501353 142.64888614 0.06926686 C143.40134631 0.06952958 144.15380647 0.0697923 144.92906845 0.07006299 C148.70378376 0.07136799 152.47849909 0.0726317 156.25321442 0.07387489 C187.58880436 0.0842486 218.92438626 0.10194198 250.25997013 0.1241985 C250.56936023 0.94960888 250.87875034 1.77501927 251.1975159 2.62544209 C254.18054816 10.58359948 257.16387643 18.54164584 260.14750046 26.4995814 C261.67968903 30.58627049 263.21178093 34.67299576 264.74361271 38.75981861 C272.97088951 60.70934502 281.21833297 82.65115785 289.49047035 104.58381706 C301.42301484 136.22377705 313.3058672 167.8822096 325.17180485 199.54720265 C329.11779189 210.07728818 333.06524992 220.60682117 337.01387638 231.13591725 C337.43135796 232.24914325 337.43135796 232.24914325 337.85727352 233.38485867 C339.26265384 237.1323202 340.66805977 240.87977213 342.07347721 244.62721974 C344.60451591 251.3760952 347.1353274 258.12505586 349.66615719 264.87400967 C351.07241897 268.62407606 352.47869528 272.374137 353.88497013 276.1241985 C354.4474702 277.62419847 355.0099702 279.12419847 355.57247013 280.6241985 C355.99012638 281.7379485 355.99012638 281.7379485 356.41622013 282.8741985 C384.30281681 357.23845631 412.18941349 431.60271412 455.42071766 546.88623768 C455.96525602 548.33830964 456.50983409 549.79036671 457.05445331 551.24240834 C458.35190446 554.70175921 459.64872657 558.16134272 460.94399112 561.62151295 C463.29027841 567.88737443 465.64645245 574.14916214 468.02852482 580.40154225 C468.66629352 582.08195606 468.66629352 582.08195606 469.31694645 583.79631764 C470.10403569 585.86868387 470.89498064 587.93959156 471.69054264 590.00871998 C472.03233555 590.91049977 472.37412845 591.81227955 472.72627872 592.741386 C473.02456577 593.52110768 473.32285282 594.30082936 473.63017887 595.10417897 C474.25997013 597.1241985 474.25997013 597.1241985 474.25997013 600.1241985 C412.87997013 600.1241985 351.49997013 600.1241985 288.25997013 600.1241985 C285.13005998 592.61241414 282.15938786 585.27075149 279.58809513 577.585136 C279.26137821 576.62056477 278.93466129 575.65599354 278.59804386 574.66219288 C277.5647419 571.609177 276.53709076 568.5542988 275.50997013 565.4991985 C269.83434354 548.68090075 264.06647796 531.89855445 258.25997013 515.1241985 C169.48997013 514.7941985 80.71997013 514.4641985 -10.74002987 514.1241985 C-11.73002987 517.7541985 -12.72002987 521.3841985 -13.74002987 525.1241985 C-14.44339217 527.34145158 -15.16948023 529.55176791 -15.92899472 531.7504192 C-16.33306545 532.92566654 -16.73713619 534.10091389 -17.1534515 535.31177479 C-17.58163174 536.54538243 -18.00981198 537.77899006 -18.45096737 539.04997975 C-18.90581413 540.36825524 -19.36036727 541.68663208 -19.81464535 543.00510365 C-21.00304703 546.45142383 -22.19578847 549.89622669 -23.3893829 553.34075123 C-24.35197995 556.12110136 -25.311387 558.90254693 -26.27062947 561.68405586 C-27.43375138 565.0564304 -28.59845085 568.42825933 -29.76346737 571.79997975 C-30.18759915 573.02751469 -30.61173092 574.25504963 -31.04871517 575.5197826 C-33.89624754 583.74026872 -36.81370948 591.93050141 -39.74002987 600.1241985 C-101.12002987 600.1241985 -162.50002987 600.1241985 -225.74002987 600.1241985 C-224.61510118 593.37462633 -224.61510118 593.37462633 -223.40262753 590.17937428 C-223.12834927 589.448214 -222.85407101 588.71705372 -222.57148129 587.96373707 C-222.26874295 587.17364247 -221.9660046 586.38354786 -221.65409237 585.569511 C-221.16820141 584.28092182 -221.16820141 584.28092182 -220.67249447 582.96630055 C-219.95704291 581.07097088 -219.23903516 579.17660469 -218.51883847 577.28307301 C-217.33106135 574.1598802 -216.14998348 571.03422318 -214.97049862 567.9078899 C-213.20077447 563.21813376 -211.42859229 558.52931602 -209.65506893 553.84099537 C-204.61017498 540.4992547 -199.60623948 527.14207777 -194.59791332 513.78657871 C-193.73465215 511.48485984 -192.87109527 509.18325211 -192.00745541 506.8816753 C-183.24369888 483.52534531 -174.54018004 460.14716656 -165.8692413 436.75624043 C-157.29706406 413.63303966 -148.64111801 390.54271365 -139.92732769 367.47252995 C-131.4584283 345.04991105 -123.0682273 322.59944583 -114.74002987 300.1241985 C-106.1454256 276.9300009 -97.48014594 253.76395611 -88.74002987 230.6241985 C-79.96056305 207.37947914 -71.25276412 184.10946146 -62.61502987 160.8116985 C-51.15705062 129.91026182 -39.61922409 99.03958099 -28.02024704 68.1908012 C-26.17066509 63.27109551 -24.323166 58.35061016 -22.476358 53.42986256 C-20.03310497 46.92002863 -17.58779074 40.41097348 -15.13991982 33.90287453 C-13.84876165 30.47002868 -12.55841514 27.03688362 -11.27021176 23.60292774 C-9.85825088 19.83933551 -8.44195075 16.07739129 -7.02518612 12.31560475 C-6.60352169 11.18986042 -6.18185726 10.0641161 -5.74741513 8.90425831 C-5.36349606 7.88701679 -4.97957699 6.86977528 -4.58402401 5.82170826 C-4.25004101 4.93330754 -3.91605801 4.04490681 -3.57195431 3.12958485 C-2.34304033 0.16723971 -2.34304033 0.16723971 0 0 Z M108.25997013 170.1241985 C107.10883732 173.45642506 105.9577045 176.78865162 104.77168888 180.22185475 C86.80147403 232.24089772 86.80147403 232.24089772 85.61142582 235.68576771 C84.82824792 237.9528659 84.04507531 240.21996591 83.26190799 242.48706776 C81.30752893 248.14455599 79.35305559 253.80201162 77.39839786 259.45940357 C73.79570831 269.8870119 70.19373592 280.31486548 66.59509891 290.74387318 C64.96829909 295.45829374 63.34107929 300.17256927 61.713736 304.88680226 C60.91638186 307.19679451 60.11915925 309.50683216 59.3220734 311.816917 C55.1494979 323.90824101 50.9631548 335.99442096 46.73262638 348.06560475 C46.37653293 349.08244343 46.02043949 350.09928211 45.65355533 351.14693409 C43.98198459 355.91917481 42.3071288 360.69021347 40.62618107 365.45915943 C40.04176551 367.12481247 39.45744932 368.79050037 38.87325138 370.45622975 C38.60553425 371.21166569 38.33781711 371.96710163 38.06198734 372.74542958 C36.72452003 376.34814491 36.72452003 376.34814491 36.25997013 380.1241985 C94.00997013 380.1241985 151.75997013 380.1241985 211.25997013 380.1241985 C209.94130973 374.19022669 208.58712748 368.74680255 206.55684513 363.08904225 C206.28688724 362.32233708 206.01692936 361.55563191 205.73879093 360.76569325 C205.14709503 359.08633816 204.55315622 357.40777203 203.95723575 355.72991139 C202.27047288 350.97871771 200.6021484 346.22104202 198.93184513 341.46404225 C198.56595279 340.42315449 198.20006046 339.38226673 197.82308048 338.30983692 C193.38126691 325.65478061 189.03577211 312.96665929 184.68523258 300.28002125 C177.410472 279.0662054 170.10805044 257.86278715 162.7008881 236.69475514 C162.11769107 235.02801635 161.5345206 233.36126826 160.95137638 231.694511 C160.66232425 230.86839817 160.37327213 230.04228535 160.07546085 229.1911388 C157.57025345 222.0249962 155.08357955 214.85248476 152.59981388 207.678886 C152.20632252 206.54275364 151.81283115 205.40662129 151.40741581 204.23606068 C149.85070402 199.7408773 148.29413517 195.24564709 146.74028629 190.74947315 C145.67768083 187.67476503 144.61348793 184.60061035 143.54903263 181.52654225 C143.23002491 180.60175068 142.91101719 179.67695912 142.58234257 178.72414356 C142.14360561 177.45831944 142.14360561 177.45831944 141.69600528 176.16692311 C141.4414658 175.4305814 141.18692631 174.6942397 140.9246735 173.9355846 C140.27540008 172.06196506 140.27540008 172.06196506 139.25997013 170.1241985 C129.02997013 170.1241985 118.79997013 170.1241985 108.25997013 170.1241985 Z " fill="#FFFFFF" transform="translate(225.74002987146378,-0.12419849634170532)"/>
<path d="M0 0 C180.18 0 360.36 0 546 0 C546 48.18 546 96.36 546 146 C529.63226453 161.27655311 529.63226453 161.27655311 524.88671875 165.36328125 C522.56341213 167.37873772 520.28251535 169.43848462 518 171.5 C515.04130249 174.17048344 512.07073528 176.82298058 509.0625 179.4375 C505.83440488 182.24822525 502.66261557 185.115799 499.5 188 C495.71337002 191.45328153 491.8952368 194.86099051 488.02734375 198.22265625 C485.66510827 200.29359487 483.33204147 202.39512848 481 204.5 C478.04130249 207.17048344 475.07073528 209.82298058 472.0625 212.4375 C468.83440488 215.24822525 465.66261557 218.115799 462.5 221 C458.71337002 224.45328153 454.8952368 227.86099051 451.02734375 231.22265625 C448.66510827 233.29359487 446.33204147 235.39512848 444 237.5 C441.04130249 240.17048344 438.07073528 242.82298058 435.0625 245.4375 C431.83440488 248.24822525 428.66261557 251.115799 425.5 254 C421.71065874 257.45575413 417.88916302 260.8652289 414.01953125 264.23046875 C409.97334911 267.77576954 405.99256813 271.39458999 402 275 C396.72014424 279.76786975 391.42708194 284.51512218 386.0625 289.1875 C382.8248667 292.0326929 379.6331371 294.92853836 376.43359375 297.81640625 C374.32488854 299.70848685 372.20080199 301.57905758 370.0625 303.4375 C366.83440488 306.24822525 363.66261557 309.115799 360.5 312 C356.71337002 315.45328153 352.8952368 318.86099051 349.02734375 322.22265625 C346.66510827 324.29359487 344.33204147 326.39512848 342 328.5 C339.04130249 331.17048344 336.07073528 333.82298058 333.0625 336.4375 C329.83440488 339.24822525 326.66261557 342.115799 323.5 345 C319.71337002 348.45328153 315.8952368 351.86099051 312.02734375 355.22265625 C309.66510827 357.29359487 307.33204147 359.39512848 305 361.5 C302.04130249 364.17048344 299.07073528 366.82298058 296.0625 369.4375 C292.83440488 372.24822525 289.66261557 375.115799 286.5 378 C282.71065874 381.45575413 278.88916302 384.8652289 275.01953125 388.23046875 C270.97334911 391.77576954 266.99256813 395.39458999 263 399 C257.72014424 403.76786975 252.42708194 408.51512218 247.0625 413.1875 C244.69035571 415.27211164 242.34443935 417.38428644 240 419.5 C236.93149817 422.2672992 233.85527163 425.02399819 230.75 427.75 C230.11449219 428.31976563 229.47898437 428.88953125 228.82421875 429.4765625 C227 431 227 431 225.20703125 432.0859375 C223.23558737 433.22582245 223.23558737 433.22582245 221 436 C220.67 440.29 220.34 444.58 220 449 C326.26 449 432.52 449 542 449 C542 498.5 542 548 542 599 C360.5 599 179 599 -8 599 C-8 550.82 -8 502.64 -8 453 C6.89327146 439.17053364 6.89327146 439.17053364 11.87890625 434.87109375 C14.79798214 432.296071 17.64621842 429.64696825 20.5 427 C24.56012836 423.23444239 28.65411497 419.52779893 32.84375 415.90625 C35.77240413 413.31714998 38.63396673 410.65803766 41.5 408 C45.58568731 404.21115843 49.70393369 400.47828053 53.91796875 396.83203125 C57.13491793 394.00135739 60.2797068 391.09232984 63.43334961 388.19165039 C69.05428499 383.02371657 74.73731872 377.92588837 80.421875 372.828125 C85.01448104 368.70355524 89.58179449 364.55378107 94.125 360.375 C97.36217216 357.39781719 100.61137729 354.44047144 103.9375 351.5625 C107.52958591 348.45035876 111.01551992 345.23127914 114.5 342 C118.58570879 338.21118064 122.70393273 334.47828136 126.91796875 330.83203125 C130.13491793 328.00135739 133.2797068 325.09232984 136.43334961 322.19165039 C142.05428499 317.02371657 147.73731872 311.92588837 153.421875 306.828125 C158.0144815 302.70355484 162.58176587 298.55375029 167.125 294.375 C170.99638264 290.8149821 174.90947915 287.31294132 178.8828125 283.8671875 C182.10888518 281.02205329 185.2673544 278.10367121 188.43310547 275.19189453 C194.05408996 270.02384427 199.73723334 264.92596494 205.421875 259.828125 C210.01448104 255.70355524 214.58179449 251.55378107 219.125 247.375 C222.36217216 244.39781719 225.61137729 241.44047144 228.9375 238.5625 C232.52958591 235.45035876 236.01551992 232.23127914 239.5 229 C243.58570879 225.21118064 247.70393273 221.47828136 251.91796875 217.83203125 C255.13491793 215.00135739 258.2797068 212.09232984 261.43334961 209.19165039 C267.05428499 204.02371657 272.73731872 198.92588837 278.421875 193.828125 C283.01448375 189.70355281 287.58162263 185.55359624 292.125 181.375 C295.49270067 178.28008255 298.87224206 175.20188462 302.3125 172.1875 C302.92867187 171.63707031 303.54484375 171.08664063 304.1796875 170.51953125 C306 169 306 169 308.0078125 167.69921875 C310.30166345 166.23408757 310.30166345 166.23408757 313 163 C313.33 158.71 313.66 154.42 314 150 C210.38 150 106.76 150 0 150 C0 100.5 0 51 0 0 Z " fill="#FFFFFF" transform="translate(729,1)"/>
<path d="M0 0 C24.91934762 -1.03317705 49.83544423 -1.80620109 74.77197552 -2.27973557 C86.35509975 -2.50559725 97.92471134 -2.81379392 109.49926758 -3.31933594 C189.53168035 -6.74566025 189.53168035 -6.74566025 204.66418457 6.5290947 C213.26536805 15.74904752 218.05537594 26.88855825 222.06307983 38.6986084 C224.51780281 45.81999864 228.3920454 51.2894416 232.89453125 57.28125 C234.0951055 59.03629199 235.28640239 60.79772884 236.46679688 62.56640625 C237.58192737 64.21100794 238.69716188 65.85553911 239.8125 67.5 C241.59915822 70.13983085 243.38506947 72.78016592 245.1709137 75.42054749 C246.29962695 77.0892413 247.42863394 78.75773649 248.55796814 80.42601013 C251.37423569 84.5877979 254.1789862 88.75655613 256.9609375 92.94140625 C260.43345736 98.16497143 263.94303608 103.36289543 267.45703125 108.55859375 C268.04309647 109.42635941 268.62916168 110.29412506 269.23298645 111.18818665 C272.38532348 115.85470022 275.54603829 120.51521409 278.71972656 125.16723633 C284.55290045 133.74229902 290.29273084 142.30973343 295.52734375 151.265625 C296.3461994 152.6341737 297.16606628 154.00211796 297.98706055 155.36938477 C299.46910799 157.83785496 300.8634042 160.33281418 302.22192383 162.87084961 C305.03214381 167.54762359 307.51132833 170.79452851 312.81640625 172.43579102 C317.54822149 173.32955111 321.63601936 173.14043627 326 171 C332.36969899 165.53587147 336.31035251 157.70592859 340.5 150.5625 C341.76904904 148.50462069 343.0444875 146.45066839 344.32617188 144.40063477 C346.82772773 140.38735291 349.30128535 136.35920552 351.75 132.31347656 C355.46206844 126.20465426 359.41095099 120.30114145 363.5 114.4375 C364.80906331 112.52725454 366.11627387 110.61573844 367.421875 108.703125 C368.12505859 107.67509766 368.82824219 106.64707031 369.55273438 105.58789062 C374.97971632 97.64006135 380.36444771 89.66343063 385.75 81.6875 C386.66962021 80.32557022 386.66962021 80.32557022 387.6078186 78.93612671 C398.61355562 62.62577816 409.47805977 46.22445905 420.28222656 29.7800293 C420.85904678 28.90209213 421.435867 28.02415497 422.03016663 27.11961365 C423.08276027 25.51681482 424.13478939 23.91364498 425.1860199 22.30995178 C426.16451745 20.81891705 427.16006923 19.33892538 428.17290306 17.87099838 C429.56834562 15.67827765 430.70715252 13.60490296 431.84094524 11.28451824 C437.044188 1.31051996 437.044188 1.31051996 441.93783462 -0.85917878 C447.58771078 -2.2151426 453.36283662 -1.88020434 459.12744141 -1.70288086 C461.05992297 -1.69864472 462.99242865 -1.70103463 464.92489624 -1.70951843 C470.14941555 -1.71380828 475.36872873 -1.62588369 480.59204149 -1.52090907 C486.05835303 -1.4268859 491.52479539 -1.41830889 496.99179077 -1.40052795 C507.33406687 -1.35397757 517.67395342 -1.23099185 528.01517904 -1.08028561 C539.7923573 -0.91239325 551.56965212 -0.83009445 563.34772992 -0.75485408 C587.56647611 -0.59822951 611.78310396 -0.33453884 636 0 C635.03655495 1.44722304 634.07283944 2.89426603 633.10900879 4.3412323 C632.57236855 5.14707355 632.0357283 5.95291479 631.48282623 6.78317547 C629.96162385 9.05737232 628.41632974 11.31181269 626.84375 13.55078125 C626.30363281 14.32099609 625.76351562 15.09121094 625.20703125 15.88476562 C624.64371094 16.68591797 624.08039062 17.48707031 623.5 18.3125 C622.26038926 20.07940785 621.02080672 21.84633549 619.78125 23.61328125 C619.15347656 24.50740723 618.52570312 25.4015332 617.87890625 26.32275391 C614.91523445 30.54567815 611.95782851 34.77298204 609 39 C607.83595926 40.66277565 606.6718967 42.32553602 605.5078125 43.98828125 C603.14751876 47.36003531 600.7882509 50.7325041 598.4296875 54.10546875 C592.48305871 62.60810465 586.52321098 71.10090706 580.53417969 79.57373047 C574.92414591 87.51479808 569.35389765 95.48365319 563.78222656 103.45166016 C560.27493444 108.46660744 556.76463287 113.47944858 553.25488281 118.49267578 C550.3121436 122.69623647 547.37015906 126.90032141 544.4296875 131.10546875 C538.48305871 139.60810465 532.52321098 148.10090706 526.53417969 156.57373047 C520.92414591 164.51479808 515.35389765 172.48365319 509.78222656 180.45166016 C506.27493444 185.46660744 502.76463287 190.47944858 499.25488281 195.49267578 C496.3121436 199.69623647 493.37015906 203.90032141 490.4296875 208.10546875 C484.48305871 216.60810465 478.52321098 225.10090706 472.53417969 233.57373047 C468.71709007 238.97686492 464.91768168 244.39220886 461.125 249.8125 C460.25367432 251.05761353 460.25367432 251.05761353 459.36474609 252.32788086 C456.33438528 256.65953392 453.30664114 260.99299955 450.28125 265.328125 C449.6728125 266.19872559 449.064375 267.06932617 448.4375 267.96630859 C447.24223045 269.67839054 446.04946276 271.39222224 444.859375 273.10791016 C442.42969893 276.59847976 439.99916204 280.0594622 437.34375 283.3828125 C436.24546875 284.77113281 436.24546875 284.77113281 435.125 286.1875 C434.50882813 286.92355469 433.89265625 287.65960938 433.2578125 288.41796875 C431.3569032 292.32014592 431.22313319 295.74694543 432 300 C433.33261994 302.91684594 435.14701299 305.30051183 437.125 307.8125 C438.2355172 309.301232 439.34484398 310.79085254 440.453125 312.28125 C441.32807617 313.43753906 441.32807617 313.43753906 442.22070312 314.6171875 C445.20442665 318.61295336 448.03163258 322.71630632 450.875 326.8125 C452.05929042 328.50693372 453.24419076 330.20094131 454.4296875 331.89453125 C455.01975586 332.73838379 455.60982422 333.58223633 456.21777344 334.45166016 C459.14376733 338.6354306 462.0719831 342.81764524 465 347 C466.16667759 348.66665902 467.33334425 350.33332569 468.5 352 C469.36625 353.2375 469.36625 353.2375 470.25 354.5 C518.66666667 423.66666667 567.08333333 492.83333333 615.5 562 C616.07862793 562.8264502 616.65725586 563.65290039 617.25341797 564.50439453 C618.40930436 566.15598395 619.56458704 567.80799605 620.71923828 569.46044922 C623.7957907 573.86161628 626.88526046 578.25302334 629.9921875 582.6328125 C630.96671875 584.01146484 630.96671875 584.01146484 631.9609375 585.41796875 C633.21494734 587.19149696 634.47262996 588.96243526 635.734375 590.73046875 C636.29382812 591.52324219 636.85328125 592.31601562 637.4296875 593.1328125 C637.92710449 593.83293457 638.42452148 594.53305664 638.93701172 595.25439453 C640 597 640 597 640 599 C614.59217996 599.58520475 589.18537569 600.02542427 563.77216339 600.2953043 C551.9706486 600.4239764 540.17333095 600.59921155 528.37451172 600.88598633 C518.08461481 601.13596594 507.79775702 601.29662991 497.50490808 601.35221237 C492.05786767 601.38469137 486.6195164 601.46036908 481.17527771 601.64325142 C447.0982554 602.74424196 447.0982554 602.74424196 439.66137695 596.58600998 C434.18503579 591.11513943 431.08500299 584.25086379 428.31463623 577.10832691 C426.30375355 572.35379437 423.43754812 568.3005837 420.4375 564.125 C419.81746094 563.19872803 419.19742188 562.27245605 418.55859375 561.31811523 C418.04425781 560.55184814 417.52992188 559.78558105 417 558.99609375 C411.9344678 551.4227036 406.93821964 543.80376244 401.9375 536.1875 C401.19912399 535.06306992 401.19912399 535.06306992 400.4458313 533.91592407 C397.44666435 529.34829855 394.44860018 524.7799502 391.45098877 520.21130371 C389.16438053 516.72651775 386.87707223 513.24219138 384.58984375 509.7578125 C380.68791017 503.81326205 376.78678924 497.8681788 372.88606262 491.9228363 C369.40475485 486.61677567 365.92305621 481.31097165 362.44107056 476.00535583 C360.26664759 472.69210901 358.09236708 469.37876894 355.91845703 466.06518555 C351.79811966 459.78510135 347.67612924 453.50611716 343.54931641 447.23028564 C341.58823685 444.24779721 339.62794864 441.26478906 337.66772461 438.28173828 C336.72818057 436.85244053 335.78824386 435.42340083 334.84790039 433.99462891 C333.54866393 432.0204977 332.25075186 430.04550196 330.953125 428.0703125 C330.56566101 427.48234894 330.17819702 426.89438538 329.7789917 426.28860474 C328.42550461 424.22628595 327.1042861 422.2085722 326 420 C320.39 419.67 314.78 419.34 309 419 C308.34 420.65 307.68 422.3 307 424 C305.93644764 425.74921186 304.82342685 427.46883528 303.67578125 429.1640625 C302.64553833 430.6958313 302.64553833 430.6958313 301.59448242 432.25854492 C301.2245517 432.80417084 300.85462097 433.34979675 300.47348022 433.91195679 C298.4330136 436.92269499 296.40914647 439.94458404 294.3828125 442.96484375 C293.94952133 443.60982315 293.51623016 444.25480255 293.06980896 444.91932678 C287.88844961 452.63988362 282.78782213 460.41327673 277.6875 468.1875 C276.70762139 469.6802706 275.7277222 471.1730277 274.74780273 472.66577148 C272.30525646 476.38720133 269.86373075 480.1092997 267.42242432 483.83154297 C265.15088582 487.29445735 262.87817177 490.75659983 260.60546875 494.21875 C256.69830749 500.17105644 252.79197876 506.12390854 248.88612366 512.07707214 C244.96683033 518.0506872 241.04696698 524.02392806 237.12695312 529.99707031 C235.38335354 532.65389919 233.63986993 535.31080411 231.89648438 537.96777344 C227.86806773 544.10703662 223.83896633 550.24584658 219.80718994 556.38290405 C217.94351437 559.2198396 216.08026394 562.05705426 214.21704102 564.89428711 C213.34566882 566.22092235 212.4740983 567.54742737 211.60229492 568.8737793 C210.80557152 570.08592469 210.00996561 571.2988057 209.21574324 572.5125913 C208.4103488 573.73519248 207.59790573 574.95321141 206.77518398 576.16422039 C204.54201163 579.48405954 202.5595438 582.79523728 200.79200268 586.38675594 C195.02735065 597.53554155 195.02735065 597.53554155 190.00343919 599.9658215 C184.31361046 601.48457535 178.50006099 601.13263681 172.66723633 600.92993164 C170.72475611 600.92512968 168.78224508 600.92784124 166.83978271 600.93745422 C161.59199581 600.94231267 156.35087769 600.84273446 151.10463548 600.72369695 C145.61304906 600.61707262 140.12129174 600.60741196 134.62882996 600.58726501 C124.24022544 600.53452564 113.85467966 600.39517028 103.46741933 600.22432369 C91.63710952 600.0339867 79.8066498 599.94075967 67.97518885 599.85550129 C43.64843315 599.67803464 19.32438829 599.37922355 -5 599 C-3.72406503 595.71083544 -2.45123191 592.97422725 -0.34765625 590.13671875 C0.43750366 589.06635376 0.43750366 589.06635376 1.23852539 587.97436523 C1.79918701 587.21969971 2.35984863 586.46503418 2.9375 585.6875 C4.12388864 584.06880139 5.30875859 582.44898872 6.4921875 580.828125 C7.08483398 580.01666016 7.67748047 579.20519531 8.28808594 578.36914062 C10.77191893 574.93173113 13.17426733 571.44173335 15.5625 567.9375 C19.2680393 562.50937479 23.01500906 557.1142443 26.8125 551.75 C31.18388826 545.57444515 35.53807821 539.38731726 39.875 533.1875 C40.45854248 532.353396 41.04208496 531.51929199 41.64331055 530.65991211 C43.42914325 528.10679645 45.2146346 525.55344245 47 523 C54.1340188 512.79687497 61.27436914 502.59871641 68.46142578 492.43286133 C72.32373472 486.96647404 76.16452068 481.48523789 80 476 C84.31906804 469.82316688 88.64898265 463.65437085 93 457.5 C99.69916114 448.02272955 106.34956634 438.51149809 113 429 C120.1340188 418.79687497 127.27436914 408.59871641 134.46142578 398.43286133 C138.32373472 392.96647404 142.16452068 387.48523789 146 382 C150.31906804 375.82316688 154.64898265 369.65437085 159 363.5 C163.30718695 357.40664372 167.59703801 351.30141082 171.875 345.1875 C172.45733398 344.35524902 173.03966797 343.52299805 173.63964844 342.66552734 C176.6440871 338.3705194 179.64676277 334.07428368 182.6484375 329.77734375 C183.2465625 328.92237305 183.8446875 328.06740234 184.4609375 327.18652344 C185.6438776 325.49282699 186.82362371 323.79689479 188 322.09863281 C190.61718995 318.33268768 193.26014214 314.62018644 196.1015625 311.01953125 C196.57303711 310.40835449 197.04451172 309.79717773 197.53027344 309.16748047 C198.7688225 307.57409654 200.03552519 306.00270278 201.3046875 304.43359375 C203.72263148 299.53642149 203.95587592 295.35929038 203 290 C201.56191734 286.79718746 199.59536204 284.26594807 197.375 281.5625 C196.17376151 280.00415898 194.97461681 278.44420222 193.77734375 276.8828125 C193.15327637 276.08391602 192.52920898 275.28501953 191.88623047 274.46191406 C188.76285747 270.3852776 185.85818109 266.16047083 182.9375 261.9375 C181.75985537 260.24818126 180.58147601 258.55937447 179.40234375 256.87109375 C178.83112793 256.05237793 178.25991211 255.23366211 177.67138672 254.39013672 C175.12676089 250.75124001 172.5641107 247.12518104 170 243.5 C165.64878223 237.34577136 161.31910596 231.17680496 157 225 C150.69302078 215.98127855 144.35353778 206.98596073 138 198 C131.04732005 188.16665814 124.11760831 178.31787176 117.21582031 168.44873047 C111.50209106 160.28153281 105.75439256 152.13857528 100 144 C93.04732005 134.16665814 86.11760831 124.31787176 79.21582031 114.44873047 C73.50209106 106.28153281 67.75439256 98.13857528 62 90 C55.04732005 80.16665814 48.11760831 70.31787176 41.21582031 60.44873047 C35.98800803 52.97610194 30.7323662 45.52340376 25.46777344 38.07666016 C23.9803612 35.9722143 22.49390486 33.86709683 21.0078125 31.76171875 C20.51071777 31.05756836 20.01362305 30.35341797 19.50146484 29.62792969 C18.50903809 28.22142698 17.51716613 26.81453263 16.52587891 25.40722656 C13.89104501 21.66852862 11.24339637 17.93973103 8.578125 14.22265625 C8.02125 13.44277344 7.464375 12.66289062 6.890625 11.859375 C5.81631481 10.35534073 4.73832305 8.85392775 3.65625 7.35546875 C0 2.2249244 0 2.2249244 0 0 Z " fill="#00A8FF" transform="translate(2180,1)"/>
<path d="M0 0 C59.07 0 118.14 0 179 0 C179 197.67 179 395.34 179 599 C119.93 599 60.86 599 0 599 C0 401.33 0 203.66 0 0 Z " fill="#FFFFFF" transform="translate(1967,1)"/>
</svg>
